<svg width="115" height="26" viewBox="0 0 115 26" fill="none" xmlns="http://www.w3.org/2000/svg">
<path d="M11.684 25.14C9.46267 25.14 7.53067 24.7387 5.888 23.936C4.24533 23.1147 2.98533 21.9573 2.108 20.464C1.23067 18.9707 0.792 17.2347 0.792 15.256C0.792 12.512 1.30533 10.076 2.332 7.948C3.37733 5.82 4.78667 4.17733 6.56 3.02C8.33333 1.844 10.3027 1.256 12.468 1.256C14.484 1.256 16.0147 1.77867 17.06 2.824C18.1053 3.85067 18.628 5.21333 18.628 6.912C18.628 8.05067 18.4227 8.96533 18.012 9.656C17.62 10.3467 17.0507 10.692 16.304 10.692C15.7813 10.692 15.3707 10.5707 15.072 10.328C14.7733 10.0853 14.624 9.73067 14.624 9.264C14.624 9.096 14.6613 8.788 14.736 8.34C14.848 7.78 14.904 7.332 14.904 6.996C14.904 5.29733 13.9987 4.448 12.188 4.448C10.956 4.448 9.78 4.84933 8.66 5.652C7.54 6.45467 6.63467 7.64 5.944 9.208C5.25333 10.7573 4.908 12.6053 4.908 14.752C4.908 16.992 5.53333 18.728 6.784 19.96C8.03467 21.1733 9.88267 21.78 12.328 21.78C13.5413 21.78 14.764 21.6307 15.996 21.332C17.2467 21.0147 18.628 20.5387 20.14 19.904C20.42 19.792 20.6533 19.736 20.84 19.736C21.1387 19.736 21.3627 19.848 21.512 20.072C21.6613 20.296 21.736 20.5853 21.736 20.94C21.736 22.0787 21.12 22.9187 19.888 23.46C18.5627 24.0387 17.1813 24.468 15.744 24.748C14.3253 25.0093 12.972 25.14 11.684 25.14ZM22.9833 25.14C21.826 25.14 20.902 24.72 20.2113 23.88C19.5206 23.04 19.1753 21.9387 19.1753 20.576C19.1753 19.0827 19.5206 17.6733 20.2113 16.348C20.902 15.004 21.8166 13.9307 22.9553 13.128C24.1126 12.3067 25.3353 11.896 26.6233 11.896C27.034 11.896 27.3046 11.98 27.4353 12.148C27.5846 12.2973 27.706 12.5773 27.7993 12.988C28.1913 12.9133 28.602 12.876 29.0313 12.876C29.946 12.876 30.4033 13.2027 30.4033 13.856C30.4033 14.248 30.2633 15.1813 29.9833 16.656C29.554 18.8027 29.3393 20.296 29.3393 21.136C29.3393 21.416 29.4046 21.64 29.5353 21.808C29.6846 21.976 29.8713 22.06 30.0953 22.06C30.45 22.06 30.8793 21.836 31.3833 21.388C31.8873 20.9213 32.5686 20.1747 33.4273 19.148C33.6513 18.8867 33.9033 18.756 34.1833 18.756C34.426 18.756 34.6126 18.868 34.7433 19.092C34.8926 19.316 34.9673 19.624 34.9673 20.016C34.9673 20.7627 34.79 21.3413 34.4353 21.752C33.67 22.704 32.858 23.5067 31.9993 24.16C31.1406 24.8133 30.31 25.14 29.5073 25.14C28.8913 25.14 28.322 24.9347 27.7993 24.524C27.2953 24.0947 26.9126 23.516 26.6513 22.788C25.6806 24.356 24.458 25.14 22.9833 25.14ZM23.9913 22.312C24.402 22.312 24.794 22.0693 25.1673 21.584C25.5406 21.0987 25.8113 20.4547 25.9793 19.652L27.0153 14.5C26.2313 14.5187 25.5033 14.8173 24.8313 15.396C24.178 15.956 23.6553 16.7027 23.2633 17.636C22.8713 18.5693 22.6753 19.5587 22.6753 20.604C22.6753 21.1827 22.7873 21.612 23.0113 21.892C23.254 22.172 23.5806 22.312 23.9913 22.312ZM37.3117 14.612C37.2743 15.5453 37.2557 16.2733 37.2557 16.796C37.2557 18.14 37.321 19.1947 37.4517 19.96C37.601 20.7067 37.8343 21.248 38.1517 21.584C38.4877 21.9013 38.945 22.06 39.5237 22.06C39.8223 22.06 40.177 21.9667 40.5877 21.78C40.9983 21.5933 41.3717 21.3507 41.7077 21.052C41.913 20.8653 42.1183 20.772 42.3237 20.772C42.5477 20.772 42.725 20.9027 42.8557 21.164C43.005 21.4067 43.0797 21.7053 43.0797 22.06C43.0797 22.4147 43.005 22.76 42.8557 23.096C42.725 23.432 42.5197 23.712 42.2397 23.936C41.269 24.7387 40.1677 25.14 38.9357 25.14C37.1623 25.14 35.865 24.4027 35.0437 22.928C34.2223 21.4347 33.8117 19.4933 33.8117 17.104C33.8117 16.2827 33.8397 15.452 33.8957 14.612H32.8037C32.2437 14.612 31.861 14.5093 31.6557 14.304C31.469 14.0987 31.3757 13.772 31.3757 13.324C31.3757 12.2787 31.7957 11.756 32.6357 11.756H34.2317C34.549 9.70267 35.0343 7.82667 35.6877 6.128C36.341 4.42933 37.125 3.076 38.0397 2.068C38.973 1.06 39.9717 0.555999 41.0357 0.555999C41.8197 0.555999 42.4357 0.901333 42.8837 1.592C43.3317 2.28267 43.5557 3.15067 43.5557 4.196C43.5557 7.08933 42.3423 9.60933 39.9157 11.756H43.0517C43.3503 11.756 43.565 11.8213 43.6957 11.952C43.8263 12.0827 43.8917 12.3253 43.8917 12.68C43.8917 13.968 42.837 14.612 40.7277 14.612H37.3117ZM40.2797 3.244C39.9997 3.244 39.6823 3.59867 39.3277 4.308C38.9917 4.99867 38.665 5.96933 38.3477 7.22C38.049 8.452 37.797 9.824 37.5917 11.336C38.693 10.384 39.5143 9.32 40.0557 8.144C40.6157 6.94933 40.8957 5.86667 40.8957 4.896C40.8957 3.79467 40.6903 3.244 40.2797 3.244ZM75.1602 1.788C75.6829 1.86267 76.0376 2.02133 76.2242 2.264C76.4296 2.50667 76.5322 2.824 76.5322 3.216C76.5322 4.504 75.8416 5.10133 74.4602 5.008L73.4802 4.924C72.3789 4.83067 71.2776 4.756 70.1762 4.7C69.0936 4.644 67.9549 4.616 66.7602 4.616H65.5002C65.2762 7.37867 65.0429 9.89867 64.8002 12.176L69.6162 12.092C70.3069 12.092 70.7642 12.2133 70.9882 12.456C71.2309 12.6987 71.3522 13.0253 71.3522 13.436C71.3522 14.0707 71.1656 14.5747 70.7922 14.948C70.4189 15.3027 69.8869 15.48 69.1962 15.48H64.4082L64.2402 16.684C63.8482 19.764 63.0082 21.9573 61.7202 23.264C60.4509 24.5707 58.6962 25.224 56.4562 25.224C55.1869 25.224 54.0202 24.9533 52.9562 24.412C51.8922 23.852 51.1082 23.18 50.6042 22.396C50.3989 22.0787 50.2962 21.696 50.2962 21.248C50.2962 20.8 50.3989 20.408 50.6042 20.072C50.8282 19.736 51.0989 19.568 51.4162 19.568C51.6402 19.568 51.8549 19.6427 52.0602 19.792C52.2842 19.9413 52.5642 20.2307 52.9002 20.66C53.7962 21.836 54.9069 22.424 56.2322 22.424C57.2962 22.424 58.1829 21.9947 58.8922 21.136C59.6202 20.2587 60.0869 18.8867 60.2922 17.02L60.4602 15.48H59.1162C58.6869 15.48 58.3136 15.3587 57.9962 15.116C57.6976 14.8733 57.5482 14.528 57.5482 14.08C57.5482 13.5013 57.6976 13.0627 57.9962 12.764C58.2949 12.4467 58.7336 12.288 59.3122 12.288C59.8349 12.288 60.3482 12.2787 60.8522 12.26C61.0762 10.2067 61.3189 7.71467 61.5802 4.784C59.5642 4.97067 58.1456 5.29733 57.3242 5.764C56.5029 6.23067 56.0922 6.92133 56.0922 7.836C56.0922 8.47067 56.2789 9.07733 56.6522 9.656C56.7642 9.824 56.8202 9.992 56.8202 10.16C56.8202 10.496 56.6336 10.7947 56.2602 11.056C55.8869 11.2987 55.4669 11.42 55.0002 11.42C54.4962 11.42 54.0669 11.2707 53.7122 10.972C53.4882 10.7853 53.2736 10.4027 53.0682 9.824C52.8629 9.24533 52.7602 8.60133 52.7602 7.892C52.7602 5.57733 53.9456 3.89733 56.3162 2.852C58.7056 1.80667 62.1869 1.284 66.7602 1.284C69.9336 1.284 72.7336 1.452 75.1602 1.788ZM74.0614 25.14C72.9041 25.14 71.9801 24.72 71.2894 23.88C70.5988 23.04 70.2534 21.9387 70.2534 20.576C70.2534 19.0827 70.5988 17.6733 71.2894 16.348C71.9801 15.004 72.8948 13.9307 74.0334 13.128C75.1908 12.3067 76.4134 11.896 77.7014 11.896C78.1121 11.896 78.3828 11.98 78.5134 12.148C78.6628 12.2973 78.7841 12.5773 78.8774 12.988C79.2694 12.9133 79.6801 12.876 80.1094 12.876C81.0241 12.876 81.4814 13.2027 81.4814 13.856C81.4814 14.248 81.3414 15.1813 81.0614 16.656C80.6321 18.8027 80.4174 20.296 80.4174 21.136C80.4174 21.416 80.4828 21.64 80.6134 21.808C80.7628 21.976 80.9494 22.06 81.1734 22.06C81.5281 22.06 81.9574 21.836 82.4614 21.388C82.9654 20.9213 83.6468 20.1747 84.5054 19.148C84.7294 18.8867 84.9814 18.756 85.2614 18.756C85.5041 18.756 85.6908 18.868 85.8214 19.092C85.9708 19.316 86.0454 19.624 86.0454 20.016C86.0454 20.7627 85.8681 21.3413 85.5134 21.752C84.7481 22.704 83.9361 23.5067 83.0774 24.16C82.2188 24.8133 81.3881 25.14 80.5854 25.14C79.9694 25.14 79.4001 24.9347 78.8774 24.524C78.3734 24.0947 77.9908 23.516 77.7294 22.788C76.7588 24.356 75.5361 25.14 74.0614 25.14ZM75.0694 22.312C75.4801 22.312 75.8721 22.0693 76.2454 21.584C76.6188 21.0987 76.8894 20.4547 77.0574 19.652L78.0934 14.5C77.3094 14.5187 76.5814 14.8173 75.9094 15.396C75.2561 15.956 74.7334 16.7027 74.3414 17.636C73.9494 18.5693 73.7534 19.5587 73.7534 20.604C73.7534 21.1827 73.8654 21.612 74.0894 21.892C74.3321 22.172 74.6588 22.312 75.0694 22.312ZM89.1178 25.14C87.2884 25.14 85.8604 24.6267 84.8338 23.6C83.8258 22.5547 83.3218 21.1827 83.3218 19.484C83.3218 17.972 83.6204 16.6467 84.2178 15.508C84.8151 14.3693 85.5898 13.492 86.5418 12.876C87.4938 12.26 88.4924 11.952 89.5378 11.952C90.5644 11.952 91.3578 12.26 91.9178 12.876C92.4964 13.4733 92.7858 14.248 92.7858 15.2C92.7858 15.984 92.6084 16.6467 92.2538 17.188C91.9178 17.7293 91.4698 18 90.9098 18C90.5551 18 90.2658 17.916 90.0418 17.748C89.8364 17.58 89.7338 17.3467 89.7338 17.048C89.7338 16.9173 89.7524 16.768 89.7898 16.6C89.8271 16.432 89.8551 16.3107 89.8738 16.236C89.9671 15.956 90.0138 15.6947 90.0138 15.452C90.0138 15.2093 89.9484 15.0227 89.8178 14.892C89.7058 14.7613 89.5378 14.696 89.3138 14.696C88.8844 14.696 88.4831 14.892 88.1098 15.284C87.7364 15.6573 87.4378 16.1707 87.2138 16.824C86.9898 17.4773 86.8778 18.196 86.8778 18.98C86.8778 21.1453 87.8204 22.228 89.7058 22.228C90.4711 22.228 91.2924 21.976 92.1698 21.472C93.0658 20.9493 93.9431 20.1747 94.8018 19.148C95.0258 18.8867 95.2778 18.756 95.5578 18.756C95.8004 18.756 95.9871 18.868 96.1178 19.092C96.2671 19.316 96.3418 19.624 96.3418 20.016C96.3418 20.7253 96.1644 21.304 95.8098 21.752C94.9324 22.8347 93.8778 23.6747 92.6458 24.272C91.4324 24.8507 90.2564 25.14 89.1178 25.14ZM106.703 18.756C106.946 18.756 107.132 18.868 107.263 19.092C107.412 19.316 107.487 19.624 107.487 20.016C107.487 20.7627 107.31 21.3413 106.955 21.752C106.152 22.7413 105.275 23.5533 104.323 24.188C103.371 24.8227 102.279 25.14 101.047 25.14C97.2391 25.14 95.3351 22.4613 95.3351 17.104C95.3351 16.2827 95.3631 15.452 95.4191 14.612H94.3271C93.7671 14.612 93.3844 14.5093 93.1791 14.304C92.9924 14.0987 92.8991 13.772 92.8991 13.324C92.8991 12.2787 93.3191 11.756 94.1591 11.756H95.7551C96.0724 9.70267 96.5578 7.82667 97.2111 6.128C97.8644 4.42933 98.6484 3.076 99.5631 2.068C100.496 1.06 101.495 0.555999 102.559 0.555999C103.343 0.555999 103.959 0.901333 104.407 1.592C104.855 2.28267 105.079 3.15067 105.079 4.196C105.079 7.08933 103.866 9.60933 101.439 11.756H104.575C104.874 11.756 105.088 11.8213 105.219 11.952C105.35 12.0827 105.415 12.3253 105.415 12.68C105.415 13.968 104.36 14.612 102.251 14.612H98.8351C98.7978 15.5453 98.7791 16.2733 98.7791 16.796C98.7791 18.7373 99.0031 20.1 99.4511 20.884C99.9178 21.668 100.646 22.06 101.635 22.06C102.438 22.06 103.147 21.8173 103.763 21.332C104.379 20.8467 105.107 20.1187 105.947 19.148C106.171 18.8867 106.423 18.756 106.703 18.756ZM101.803 3.244C101.523 3.244 101.206 3.59867 100.851 4.308C100.515 4.99867 100.188 5.96933 99.8711 7.22C99.5724 8.452 99.3204 9.824 99.1151 11.336C100.216 10.384 101.038 9.32 101.579 8.144C102.139 6.94933 102.419 5.86667 102.419 4.896C102.419 3.79467 102.214 3.244 101.803 3.244ZM110.415 25.756C109.445 25.756 108.698 25.532 108.175 25.084C107.671 24.636 107.419 24.132 107.419 23.572C107.419 23.0867 107.597 22.6667 107.951 22.312C108.306 21.9573 108.829 21.78 109.519 21.78C109.762 21.78 110.042 21.808 110.359 21.864C110.695 21.9013 110.947 21.9293 111.115 21.948C111.097 21.4627 110.985 21.0053 110.779 20.576C110.593 20.1467 110.35 19.736 110.051 19.344C109.753 18.9333 109.473 18.5787 109.211 18.28C108.633 19.3813 108.054 20.296 107.475 21.024C106.915 21.752 106.299 22.4427 105.627 23.096C105.291 23.432 104.937 23.6 104.563 23.6C104.265 23.6 104.022 23.4973 103.835 23.292C103.649 23.068 103.555 22.7973 103.555 22.48C103.555 22.1067 103.686 21.7613 103.947 21.444L104.311 20.996C105.338 19.7267 106.113 18.6813 106.635 17.86C106.971 17.3187 107.307 16.6747 107.643 15.928C107.998 15.1813 108.455 14.164 109.015 12.876C109.37 12.0547 110.107 11.644 111.227 11.644C111.75 11.644 112.114 11.6907 112.319 11.784C112.525 11.8773 112.627 12.0267 112.627 12.232C112.627 12.344 112.59 12.5213 112.515 12.764C112.441 13.0067 112.338 13.2493 112.207 13.492C111.871 14.164 111.703 14.7333 111.703 15.2C111.703 15.48 111.797 15.788 111.983 16.124C112.189 16.46 112.497 16.88 112.907 17.384C113.505 18.168 113.953 18.84 114.251 19.4C114.569 19.9413 114.727 20.5387 114.727 21.192C114.727 21.976 114.541 22.7227 114.167 23.432C113.813 24.1227 113.309 24.6827 112.655 25.112C112.002 25.5413 111.255 25.756 110.415 25.756Z" fill="#FDFBFB"/>
</svg>
