<svg width="63" height="56" viewBox="0 0 63 56" fill="none" xmlns="http://www.w3.org/2000/svg">
<path d="M9.22852 55.7045H29.7773V35.9625H22.3945V29.4542H29.7773V21.3188C29.7773 16.8328 33.9172 13.1833 39.0059 13.1833H48.2344V19.6917H40.8516C38.816 19.6917 37.1602 21.1514 37.1602 22.9458V29.4542H47.9013L46.6708 35.9625H37.1602V55.7045H53.7715C58.8601 55.7045 63 52.055 63 47.5691V8.30206C63 3.81613 58.8601 0.166626 53.7715 0.166626H9.22852C4.13985 0.166626 0 3.81613 0 8.30206V47.5691C0 52.055 4.13985 55.7045 9.22852 55.7045ZM3.69141 8.30206C3.69141 5.61059 6.17542 3.4208 9.22852 3.4208H53.7715C56.8246 3.4208 59.3086 5.61059 59.3086 8.30206V47.5691C59.3086 50.2606 56.8246 52.4504 53.7715 52.4504H40.8516V39.2167H49.7979L52.2589 26.2H40.8516V22.9458H51.9258V9.92915H39.0059C31.8816 9.92915 26.0859 15.0384 26.0859 21.3188V26.2H18.7031V39.2167H26.0859V52.4504H9.22852C6.17542 52.4504 3.69141 50.2606 3.69141 47.5691V8.30206Z" fill="#A2BAC8"/>
</svg>
