<svg width="62" height="62" viewBox="0 0 62 62" fill="none" xmlns="http://www.w3.org/2000/svg">
<path d="M44.8896 0H17.1093C7.67523 0 0 7.6756 0 17.1097V44.89C0 54.3244 7.67523 61.9996 17.1093 61.9996H44.8896C54.3244 61.9996 61.9996 54.324 61.9996 44.89V17.1097C62 7.6756 54.3244 0 44.8896 0ZM56.4991 44.89C56.4991 51.2912 51.2912 56.4987 44.89 56.4987H17.1093C10.7084 56.4991 5.50091 51.2912 5.50091 44.89V17.1097C5.50091 10.7088 10.7084 5.50091 17.1093 5.50091H44.8896C51.2908 5.50091 56.4987 10.7088 56.4987 17.1097V44.89H56.4991Z" fill="#A2BAC8"/>
<path d="M30.9999 15.0248C22.1908 15.0248 15.0242 22.1914 15.0242 31.0005C15.0242 39.8093 22.1908 46.9755 30.9999 46.9755C39.8091 46.9755 46.9756 39.8093 46.9756 31.0005C46.9756 22.1914 39.8091 15.0248 30.9999 15.0248ZM30.9999 41.4743C25.2243 41.4743 20.5251 36.7758 20.5251 31.0002C20.5251 25.2242 25.224 20.5254 30.9999 20.5254C36.7759 20.5254 41.4747 25.2242 41.4747 31.0002C41.4747 36.7758 36.7755 41.4743 30.9999 41.4743Z" fill="#A2BAC8"/>
<path d="M47.6456 10.3604C46.5857 10.3604 45.5446 10.7895 44.7961 11.5413C44.0439 12.2894 43.6116 13.3309 43.6116 14.3944C43.6116 15.4546 44.0443 16.4958 44.7961 17.2475C45.5442 17.9957 46.5857 18.4284 47.6456 18.4284C48.7091 18.4284 49.7469 17.9957 50.4987 17.2475C51.2505 16.4958 51.6796 15.4542 51.6796 14.3944C51.6796 13.3309 51.2505 12.2894 50.4987 11.5413C49.7506 10.7895 48.7091 10.3604 47.6456 10.3604Z" fill="#A2BAC8"/>
</svg>
