<svg width="71" height="52" viewBox="0 0 71 52" fill="none" xmlns="http://www.w3.org/2000/svg">
<path d="M71 6.94463C66.5338 7.12882 66.6313 7.1138 66.1264 7.15161L68.7715 0.392098C68.7715 0.392098 60.5151 3.10996 58.422 3.59614C52.925 -0.82505 44.7542 -1.02039 38.9126 2.19237C34.129 4.82395 31.5614 9.34305 32.4178 14.6251C23.1078 13.469 15.2637 9.51998 9.07055 2.86275L7.11181 0.757582L5.64817 3.16279C3.79831 6.20203 3.18404 9.67703 3.91802 12.9475C4.2192 14.2892 4.73109 15.5689 5.44016 16.7671L3.75985 16.1845L3.56051 18.6968C3.35846 21.2489 4.30804 24.228 6.10102 26.6652C6.60587 27.3516 7.2559 28.1054 8.0798 28.8489L7.21148 28.7297L8.27102 31.6085C9.6637 35.3908 12.5563 38.3171 16.3102 39.9438C12.5612 41.3675 9.53261 42.2758 4.5545 43.7412L0 45.081L4.20674 47.1391C5.81068 47.9239 11.4783 50.5448 17.0783 51.331C29.5263 53.078 43.5413 51.6553 52.9764 44.0514C60.9235 37.6467 63.5312 28.5363 62.9895 19.0555C62.9077 17.6202 63.347 16.2504 64.2267 15.199C65.9889 13.0939 70.9892 6.95868 71 6.94463V6.94463ZM60.9002 12.9693C59.4393 14.7148 58.7075 16.944 58.8386 19.2455C59.3851 28.8087 56.4774 36.225 50.1954 41.2875C42.8572 47.2016 31.0208 49.523 17.7224 47.6563C15.314 47.3185 12.825 46.5618 10.7649 45.8061C14.9386 44.5211 18.1617 43.3757 23.3668 41.1712L30.6329 38.0936L22.6106 37.6341C18.7678 37.414 15.5681 35.7476 13.6012 33.0418C14.6456 32.9875 15.6526 32.8363 16.6553 32.5862L24.3066 30.6793L16.5913 28.9885C12.8423 28.1669 10.7054 26.1597 9.57269 24.6202C8.82896 23.6085 8.34306 22.5722 8.05164 21.6168C8.82516 21.8025 9.72707 21.9348 11.1815 22.0637L18.3226 22.6958L12.6646 18.7463C8.58791 15.9009 6.95418 11.6261 8.15185 7.5166C20.875 19.3255 35.8136 18.438 37.3174 18.7501C36.9864 15.8733 36.9777 15.8665 36.8911 15.5926C34.9654 9.50107 39.1856 6.40804 41.0891 5.36103C45.0651 3.17443 51.3763 2.84481 55.7477 6.4473C56.6919 7.2248 57.9686 7.53066 59.1636 7.26503C60.2361 7.02655 61.1164 6.774 61.9782 6.49916L60.1841 11.0837L62.4744 11.0852C62.0421 11.6038 61.5237 12.2248 60.9002 12.9693Z" fill="#A2BAC8"/>
</svg>
